# xmcd CD database file
#
# Track frame offsets:
#	187
#	7255
#	14950
#	137145
#	139047
#	163842
#	175950
#	236055
#
# Disc length: 3437 seconds
#
# Revision: 3
# Processed by: cddbd v1.5.2PL0 Copyright (c) Steve Scherf et al.
# Submitted via: CDex 1.70beta3
#
DISCID=750d6b08
DTITLE=Various Artist - 星方武侠アウトロースター
DYEAR=1900
DGENRE=Blues
TTITLE0=松本梨香／渋谷茂/開端～Through The Night
TTITLE1=通知 壱
TTITLE2=ロンリーガンマン ハッキンボーイ
TTITLE3=通知 弐
TTITLE4=Tough&Rough/ジム&ジーン
TTITLE5=通知 参
TTITLE6=双子のクタール襲来
TTITLE7=再見
EXTD=
EXTT0=
EXTT1=
EXTT2=
EXTT3=
EXTT4=
EXTT5=
EXTT6=
EXTT7=
PLAYORDER=
